<svg fill="currentColor" xmlns="http://www.w3.org/2000/svg" viewBox="0 0 24 24"><path d="M14.088 13.24a.054.054 0 0 1-.055.055h-.689a.053.053 0 0 1-.054-.055v-2.398c0-.03.023-.054.054-.054h.693c.031 0 .055.023.055.054zM7.292 9.826h-.744a.053.053 0 0 0-.054.055v1.245h-.6V9.881a.053.053 0 0 0-.055-.055h-.743a.053.053 0 0 0-.055.055v3.363c0 .03.023.055.055.055h.743a.054.054 0 0 0 .055-.055v-1.363h.6v1.363c0 .03.023.055.054.055h.744c.03 0 .055-.023.055-.055V9.881a.055.055 0 0 0-.055-.055m7.065 3.414c0 .031.023.055.055.055h.673c.03 0 .055-.023.055-.055v-1.887h.18c.089 0 .163.074.163.163v1.724c0 .031.023.055.054.055h.678c.03 0 .054-.023.054-.055v-1.883a.565.565 0 0 0-.564-.565h-1.253a.086.086 0 0 0-.086.086v2.362zm7.727 0c0 .031.023.055.054.055h.674c.03 0 .055-.023.055-.055v-1.887h.18c.088 0 .162.074.162.163v1.724c0 .031.023.055.055.055h.678c.03 0 .054-.023.054-.055v-1.883a.565.565 0 0 0-.564-.565h-1.253a.086.086 0 0 0-.086.086v2.362zm-12.285 0c0 .031.023.055.054.055h.674c.03 0 .055-.023.055-.055v-1.887h.18c.088 0 .162.074.162.163v1.724c0 .031.023.055.055.055h.678c.03 0 .054-.023.054-.055v-1.883a.565.565 0 0 0-.564-.565H9.894a.086.086 0 0 0-.086.086v2.362zm-.277-2.398a.053.053 0 0 0-.054-.054h-.674a.053.053 0 0 0-.055.054v1.888h-.18a.164.164 0 0 1-.162-.163v-1.725a.053.053 0 0 0-.055-.054h-.678a.053.053 0 0 0-.054.054v1.884c0 .312.253.564.564.564h1.253c.047 0 .086-.04.086-.085v-2.363zm3.468 1.893h-.132a.164.164 0 0 1-.163-.164v-1.106h.295a.054.054 0 0 0 .055-.055v-.568a.053.053 0 0 0-.055-.054h-.295v-.46a.053.053 0 0 0-.055-.054h-.642a.053.053 0 0 0-.055.055v2.398c0 .312.254.564.565.564h.482a.054.054 0 0 0 .055-.055v-.447a.055.055 0 0 0-.055-.054m6.704 0h-.132a.164.164 0 0 1-.163-.164v-1.106h.295a.054.054 0 0 0 .055-.055v-.568a.053.053 0 0 0-.055-.054H19.4v-.46a.053.053 0 0 0-.055-.054h-.642a.053.053 0 0 0-.055.055v2.398c0 .312.254.564.565.564h.482a.054.054 0 0 0 .055-.055v-.447a.054.054 0 0 0-.055-.054m-1.347-1.947h-1.285a.565.565 0 0 0-.564.564v1.374c0 .312.253.564.564.564h.557v.331a.13.13 0 0 1-.133.133h-.078a.13.13 0 0 1-.132-.133v-.105a.053.053 0 0 0-.055-.055h-.673a.053.053 0 0 0-.055.055v.198c0 .39.202.522.553.6a2 2 0 0 0 .802 0c.35-.078.553-.21.553-.6v-2.872a.054.054 0 0 0-.054-.054m-.727 1.947h-.18a.164.164 0 0 1-.163-.164v-1.055c0-.09.074-.163.163-.163h.18zm3.674-1.947a2 2 0 0 0-.802 0c-.35.077-.553.21-.553.6v1.307c0 .39.202.522.553.6a2 2 0 0 0 .802 0c.35-.078.553-.21.553-.6v-1.304c-.004-.393-.207-.521-.553-.603m-.206 1.779a.164.164 0 0 1-.163.163h-.067a.164.164 0 0 1-.163-.163v-1.051c0-.09.074-.163.163-.163h.067c.089 0 .163.074.163.163zm-19.09-1.464V9.64l-.53.307v1.463zm.199 1.795v1.463l.533-.307v-1.463zm-.729-.424v1.58l.53.307v-1.569l.93-.537v1.681l.533-.303v-3.266l-.533-.303v1.565zm-.202-2.41-.53.307v3.262l.53.303v-1.564l1.463-.845v-1.58l-.533-.307v1.569l-.93.537zm-.728.42-.452.261c-.043.027-.081.082-.081.129v2.254c0 .043.035.1.081.129l.452.26zm3.122 3.033.452-.261c.043-.027.082-.082.082-.129v-2.253c0-.043-.036-.1-.082-.129l-.452-.26z"/></svg>