<svg fill="currentColor" xmlns="http://www.w3.org/2000/svg" viewBox="0 0 24 24"><path d="m1.503 11.923.911 2.005H.004zm.054-.065 1.134 2.072-.382-3.088zm1.368-1.853-.567.759.567 3.166.57-3.164zm.248 3.924 1.132-2.079-.76-1.013zm.282 0h2.402l-1.504-2.01zm4.468-1.493c.55.039.804-.13.804-.597 0-.362-.208-.559-.606-.559h-.198zm-.64-.848c0-.236-.055-.327-.368-.386v-.082h1.38c.804 0 1.127.314 1.127.708 0 .289-.17.555-.586.67v.01c.323.071.635.973.898 1.229.075.072.14.1.263.12v.081H9.16c-.318-.366-.526-.997-.75-1.214-.128-.125-.228-.13-.486-.13v.867c0 .25.104.357.372.396v.081h-1.38v-.08c.238-.02.368-.135.368-.361zm4.615 1.599h-.073c-.027-.19-.126-.28-.31-.28h-.396v.642c0 .197.085.268.307.268h.13c.277 0 .4-.197.473-.406h.065l-.042.53H10.34v-.063c.25-.052.284-.127.284-.35v-1.402c0-.19-.046-.258-.284-.303v-.063h1.685v.485h-.065c-.073-.28-.158-.361-.407-.361h-.434v.902h.395c.18 0 .265-.074.311-.272h.073zm2.718.652c-.215.101-.534.157-.871.157-.81 0-1.221-.57-1.221-1.13 0-.667.518-1.162 1.22-1.162.342 0 .496.13.642.13.061 0 .103-.017.16-.073h.07v.611h-.07a.84.84 0 0 0-.77-.544c-.461 0-.715.402-.715 1.078 0 .696.307.969.722.969.203 0 .338-.053.338-.231v-.325c0-.142-.058-.235-.23-.268v-.064h.944v.064c-.165.045-.22.126-.22.328zm1.443-.268c0 .194.05.25.284.305v.063H15.28v-.062c.276-.067.283-.141.283-.354v-1.395c0-.193-.05-.25-.283-.306v-.063h1.063v.064c-.268.06-.284.142-.284.35zm2.02-1.744c-.441 0-.683.354-.683 1.043 0 .526.177 1.003.683 1.003.376 0 .687-.287.687-1.007 0-.61-.195-1.039-.687-1.039m0 2.169c-.71 0-1.22-.477-1.22-1.144s.51-1.148 1.22-1.148c.714 0 1.225.481 1.225 1.148s-.51 1.144-1.225 1.144m3.754-.03h-.073l-1.616-1.77v1.333c0 .24.073.307.33.347v.063H19.7v-.062c.242-.038.3-.164.296-.376v-1.462c-.173-.17-.208-.197-.3-.216v-.063h.676l1.313 1.461v-.98c0-.264-.047-.366-.285-.418v-.063h.76v.063c-.257.016-.325.164-.325.358v1.785m2.03-1.689H23.8c-.086-.253-.327-.45-.558-.45-.203 0-.368.13-.368.294a.33.33 0 0 0 .11.231c.112.108.626.372.765.507.169.164.245.313.245.504 0 .48-.445.633-.721.633-.27 0-.434-.086-.55-.086a.13.13 0 0 0-.114.071h-.066v-.656h.066c.065.324.28.548.602.548.242 0 .415-.13.415-.309a.36.36 0 0 0-.115-.25c-.173-.167-.568-.328-.756-.51a.63.63 0 0 1-.2-.463c0-.376.292-.637.706-.637.085 0 .161.016.23.03.07.015.135.03.192.03q.052.002.116-.06h.065z"/></svg>